<svg width="413" height="136" viewBox="0 0 413 136" fill="none" xmlns="http://www.w3.org/2000/svg">
<path fill-rule="evenodd" clip-rule="evenodd" d="M59.3518 128.119C63.6729 128.119 67.1759 124.617 67.1759 120.295C67.1759 115.974 63.6729 112.471 59.3518 112.471C55.0306 112.471 51.5277 115.974 51.5277 120.295C51.5277 124.617 55.0306 128.119 59.3518 128.119ZM75 120.295C75 128.938 67.994 135.944 59.3518 135.944C50.7095 135.944 43.7035 128.938 43.7035 120.295C43.7035 111.653 50.7095 104.647 59.3518 104.647C67.9941 104.647 75 111.653 75 120.295Z" fill="black"/>
<path fill-rule="evenodd" clip-rule="evenodd" d="M59.235 128.12C63.5561 128.12 67.0591 124.617 67.0591 120.296C67.0591 115.975 63.5561 112.472 59.235 112.472C54.9138 112.472 51.4109 115.975 51.4109 120.296C51.4109 124.617 54.9138 128.12 59.235 128.12Z" fill="#31FF9C"/>
<path fill-rule="evenodd" clip-rule="evenodd" d="M15.4414 128.471C20.0708 128.471 23.8237 124.718 23.8237 120.088C23.8237 115.459 20.0708 111.706 15.4414 111.706C10.8119 111.706 7.05902 115.459 7.05902 120.088C7.05902 124.718 10.8119 128.471 15.4414 128.471Z" fill="#31FF9C"/>
<path fill-rule="evenodd" clip-rule="evenodd" d="M59.235 65.4719C63.5561 65.4719 67.0591 61.969 67.0591 57.6478C67.0591 53.3267 63.5561 49.8237 59.235 49.8237C54.9138 49.8237 51.4109 53.3267 51.4109 57.6478C51.4109 61.9689 54.9138 65.4719 59.235 65.4719Z" fill="#31FF9C"/>
<path fill-rule="evenodd" clip-rule="evenodd" d="M59.3518 65.4723C63.6729 65.4723 67.1759 61.9693 67.1759 57.6482C67.1759 53.327 63.6729 49.8241 59.3518 49.8241C55.0306 49.8241 51.5277 53.327 51.5277 57.6482C51.5277 61.9693 55.0306 65.4723 59.3518 65.4723ZM75 57.6482C75 66.2904 67.9941 73.2964 59.3518 73.2964C50.7095 73.2964 43.7035 66.2904 43.7035 57.6482C43.7035 49.0059 50.7095 41.9999 59.3518 41.9999C67.9941 41.9999 75 49.0059 75 57.6482Z" fill="black"/>
<path fill-rule="evenodd" clip-rule="evenodd" d="M15.6482 128.119C19.9693 128.119 23.4723 124.617 23.4723 120.295C23.4723 115.974 19.9693 112.471 15.6482 112.471C11.327 112.471 7.82404 115.974 7.82404 120.295C7.82404 124.617 11.327 128.119 15.6482 128.119ZM31.2964 120.295C31.2964 128.938 24.2904 135.944 15.6482 135.944C7.00587 135.944 -7.74007e-05 128.938 -7.66451e-05 120.295C-7.58896e-05 111.653 7.00588 104.647 15.6482 104.647C24.2904 104.647 31.2964 111.653 31.2964 120.295Z" fill="black"/>
<path fill-rule="evenodd" clip-rule="evenodd" d="M55.5881 111.265V70.2354H63.5293V111.265H55.5881Z" fill="black"/>
<path fill-rule="evenodd" clip-rule="evenodd" d="M55.6575 70.9736C55.658 70.9758 55.6584 70.9781 59.5588 70.2351C63.4593 69.4922 63.4598 69.4946 63.4602 69.4971L63.4613 69.5025L63.4635 69.5147L63.4689 69.5442C63.4729 69.5662 63.4776 69.5928 63.4829 69.6239C63.4934 69.6861 63.5064 69.7664 63.5207 69.8636C63.5494 70.058 63.5839 70.321 63.616 70.644C63.68 71.2883 63.7355 72.1807 63.7148 73.2486C63.6738 75.3677 63.3305 78.2821 62.0732 81.3405C59.4201 87.794 53.113 93.8898 40.1525 95.357C29.4548 96.5681 25.9064 100.613 24.5985 103.371C23.8758 104.894 23.6619 106.382 23.6366 107.507C23.624 108.065 23.6584 108.511 23.6915 108.797C23.7079 108.939 23.7236 109.038 23.7322 109.088C23.7365 109.113 23.739 109.125 23.7388 109.124L23.7363 109.112L23.7334 109.099L23.7315 109.09L23.7304 109.085C23.7298 109.082 23.7292 109.08 19.8532 109.941C15.9772 110.802 15.9766 110.8 15.9759 110.797L15.9746 110.791L15.9717 110.778L15.9651 110.747C15.9603 110.724 15.9549 110.697 15.9488 110.666C15.9366 110.605 15.9221 110.528 15.9063 110.436C15.8746 110.252 15.8373 110.007 15.8029 109.71C15.7343 109.117 15.6755 108.302 15.6974 107.329C15.741 105.394 16.106 102.745 17.4236 99.9673C20.1965 94.1216 26.5744 88.9022 39.2593 87.4662C49.6813 86.2864 53.3007 81.794 54.7285 78.321C55.5116 76.4161 55.7473 74.5328 55.7752 73.0948C55.7889 72.3843 55.7514 71.8084 55.7137 71.429C55.6949 71.2401 55.6764 71.1025 55.6648 71.0241C55.659 70.985 55.655 70.9609 55.6537 70.9529C55.653 70.9488 55.653 70.9488 55.6537 70.953L55.6554 70.9624L55.6568 70.9695L55.6575 70.9736Z" fill="black"/>
<path d="M99 134.085V81.7916C99 67.1061 101.733 56.954 107.199 51.3352C109.868 48.5258 113.11 46.4188 116.923 45.0141C120.736 43.6094 124.041 42.7793 126.838 42.5239C129.761 42.2685 133.702 42.1408 138.659 42.1408H155.438V58.231H135.227C132.685 58.231 130.715 58.2948 129.316 58.4225C127.918 58.5502 126.266 58.9972 124.359 59.7634C122.452 60.5296 120.8 61.7427 119.402 63.4028C116.987 66.4676 115.779 72.5972 115.779 81.7916V134.085H99Z" fill="black"/>
<path d="M158.242 58.231L192.372 23.9437V42.1408H218.112V58.231H192.372V97.6901C192.372 102.16 193.071 105.863 194.469 108.8C195.994 111.737 198.155 113.844 200.952 115.121C203.748 116.27 206.354 117.037 208.769 117.42C211.311 117.803 214.426 117.994 218.112 117.994V134.085C203.494 134.085 192.689 131.275 185.698 125.656C178.707 120.038 175.211 110.715 175.211 97.6901V58.231H158.242Z" fill="black"/>
<path d="M236.297 0H253.457V88.1127C253.457 98.2009 256 106.054 261.084 111.673C266.296 117.164 273.414 119.91 282.439 119.91C291.846 119.91 299.218 117.228 304.557 111.865C309.896 106.374 312.565 98.4563 312.565 88.1127C312.565 78.2798 309.641 70.554 303.794 64.9352C298.074 59.1887 290.511 56.3155 281.105 56.3155C273.096 56.3155 266.169 58.6141 260.322 63.2113V45.9718C267.313 42.1409 274.876 40.2254 283.011 40.2254C296.485 40.2254 307.608 44.631 316.378 53.4423C325.276 62.1258 329.725 73.6826 329.725 88.1127C329.725 103.309 325.086 115.121 315.806 123.549C306.654 131.85 295.087 136 281.105 136C267.758 136 256.953 131.658 248.691 122.975C240.428 114.291 236.297 102.67 236.297 88.1127V0Z" fill="black"/>
<path d="M409.187 42.1408V58.231H375.438C371.752 58.231 368.574 58.9333 365.905 60.338C363.235 61.7427 361.9 63.7221 361.9 66.2761C361.9 67.8085 362.218 69.2131 362.854 70.4901C363.489 71.6394 364.188 72.5972 364.951 73.3634C365.841 74.1296 367.112 74.9596 368.765 75.8535C370.544 76.6197 371.879 77.1944 372.769 77.5775C373.786 77.8329 377.853 79.1099 384.971 81.4084C392.09 83.707 397.365 85.6225 400.797 87.1549C404.229 88.6873 406.835 90.7944 408.615 93.4761C410.521 96.0301 411.729 98.584 412.237 101.138C412.746 103.564 413 105.991 413 108.417C413 125.529 401.306 134.085 377.917 134.085H344.931V117.994H377.917C389.865 117.994 395.84 114.802 395.84 108.417C395.84 105.352 394.06 102.798 390.501 100.755C387.069 98.7117 382.811 96.9878 377.726 95.5831C372.769 94.1784 367.748 92.5822 362.663 90.7944C357.706 88.8789 353.447 85.8779 349.888 81.7916C346.456 77.5775 344.74 72.4056 344.74 66.2761C344.74 58.4864 347.727 52.5484 353.702 48.462C359.676 44.2479 366.921 42.1408 375.438 42.1408H409.187Z" fill="black"/>
</svg>
